<?xml version="1.0" encoding="UTF-8"?>
<svg version="1.1" xmlns="http://www.w3.org/2000/svg" width="722" height="269">
<path d="M0 0 C238.26 0 476.52 0 722 0 C722 88.77 722 177.54 722 269 C483.74 269 245.48 269 0 269 C0 180.23 0 91.46 0 0 Z " fill="#FDFEFE" transform="translate(0,0)"/>
<path d="M0 0 C0.11347869 10.1271283 -0.19495079 20.1370542 -0.875 30.24609375 C-0.96510132 31.63710357 -1.05477355 33.02814125 -1.14404297 34.41920471 C-1.37653523 38.02454853 -1.61472764 41.6294922 -1.85424805 45.234375 C-2.0990909 48.93531619 -2.33834935 52.63661831 -2.578125 56.33789062 C-3.04672214 63.5589513 -3.52136197 70.77959716 -4 78 C-4.53301727 78.25136215 -5.06603455 78.5027243 -5.61520386 78.76170349 C-8.07465203 79.92220828 -10.53342209 81.08414314 -12.9921875 82.24609375 C-13.83031982 82.64131226 -14.66845215 83.03653076 -15.53198242 83.44372559 C-20.76395623 85.9176909 -25.9604771 88.45076983 -31.125 91.0625 C-37.24009437 94.14626119 -43.40725589 97.09549778 -49.61645508 99.98486328 C-55.41444366 102.69402852 -61.1359809 105.54212947 -66.82421875 108.47460938 C-69.92250746 110.05267966 -72.59941767 111.14985442 -76 112 C-76 84.94 -76 57.88 -76 30 C-64.78 25.38 -53.56 20.76 -42 16 C-38.04 14.35 -34.08 12.7 -30 11 C-27.6173513 10.05948078 -25.23469925 9.11896941 -22.8515625 8.1796875 C-20.53405058 7.22093599 -18.24764391 6.22396037 -15.9609375 5.1953125 C-15.24647461 4.87546387 -14.53201172 4.55561523 -13.79589844 4.22607422 C-12.37174147 3.58574813 -10.95038983 2.93913787 -9.53222656 2.28564453 C-6.05022677 0.72207137 -3.88417803 0 0 0 Z " fill="#3CB5E5" transform="translate(420,42)"/>
<path d="M0 0 C2.89681824 1.27045863 5.58872223 2.83405835 8.3125 4.4375 C9.91520738 5.35444149 11.51807645 6.27110042 13.12109375 7.1875 C14.33901611 7.89132812 14.33901611 7.89132812 15.58154297 8.609375 C19.32286903 10.76065637 23.09878667 12.84827212 26.875 14.9375 C28.34897329 15.75648349 29.82293138 16.57549436 31.296875 17.39453125 C39.5177834 21.95407106 47.75943046 26.47612198 56 31 C56 31.66 56 32.32 56 33 C53.76457909 33.93142538 51.52915174 34.86283526 49.29370117 35.79418945 C47.22605973 36.65577582 45.15851764 37.51760065 43.09106445 38.37963867 C37.11644332 40.87031556 31.14047965 43.35766324 25.16177368 45.83851624 C21.96407717 47.16565462 18.76698683 48.49424982 15.56994629 49.82296753 C13.99673102 50.47639153 12.42324966 51.12917528 10.8494873 51.78128052 C8.60077044 52.71316423 6.35291015 53.64707604 4.10546875 54.58203125 C3.39444 54.87715103 2.68341125 55.17227081 1.95083618 55.47633362 C-2.12997296 57.18114159 -6.1412211 58.98802341 -10.13671875 60.88671875 C-14.12851984 62.70110503 -17.5359197 64.07103188 -22 64 C-25.03515625 62.48046875 -25.03515625 62.48046875 -28.0625 60.1875 C-28.61921387 59.77661133 -29.17592773 59.36572266 -29.74951172 58.94238281 C-30.92447341 58.07454698 -32.09369101 57.19888556 -33.25732422 56.31591797 C-36.00754595 54.23918847 -38.81764042 52.24839032 -41.625 50.25 C-42.18928711 49.84442871 -42.75357422 49.43885742 -43.33496094 49.02099609 C-49.20292437 44.81417223 -55.17493165 40.76070357 -61.16455078 36.72949219 C-66.61958006 33.03238821 -71.84341049 29.10247583 -77 25 C-75.49052378 21.98104757 -73.34418021 21.89412582 -70.19140625 20.828125 C-68.97831787 20.41409424 -67.76522949 20.00006348 -66.51538086 19.57348633 C-65.19780987 19.13215712 -63.8801817 18.69099856 -62.5625 18.25 C-61.22317792 17.79578697 -59.88406707 17.34095064 -58.54516602 16.88549805 C-50.83176961 14.26687937 -43.10510112 11.68696715 -35.37133789 9.12915039 C-29.56177876 7.20317393 -23.77819961 5.20547179 -18 3.1875 C-16.69760376 2.73370972 -16.69760376 2.73370972 -15.36889648 2.27075195 C-14.56653564 1.9893335 -13.7641748 1.70791504 -12.9375 1.41796875 C-12.22464844 1.16813232 -11.51179688 0.9182959 -10.77734375 0.66088867 C-6.5144821 -0.92421661 -4.6915693 -1.01172257 0 0 Z " fill="#3DB4E5" transform="translate(361,4)"/>
<path d="M0 0 C12.02353692 7.85482663 23.83716325 16.14085737 35.25578308 24.85468578 C38.45469004 27.26554096 41.6255855 29.39910638 45.17138672 31.26887512 C55.68832873 37.04778688 55.68832873 37.04778688 57.88754272 41.99761581 C59.22991256 47.61062851 58.83992181 53.29361727 58.5625 59.01171875 C58.53260467 60.83435568 58.50985436 62.65712245 58.49389648 64.47993469 C58.43319852 69.24612237 58.27646292 74.00433172 58.09863281 78.76739502 C57.93404824 83.64005565 57.86169464 88.51402474 57.78125 93.38867188 C57.61036563 102.92926111 57.33784184 112.4639639 57 122 C55.72025662 121.04861942 54.44167144 120.09568075 53.16357422 119.14208984 C52.45143768 118.61159027 51.73930115 118.0810907 51.00558472 117.53451538 C48.58930352 115.68576742 46.35147592 113.69739454 44.125 111.625 C40.83737308 108.61888242 37.50093307 105.75465267 34 103 C29.69227371 99.60623748 25.63827 96.00135476 21.58984375 92.3046875 C17.97681383 89.08947234 14.22080149 86.06446067 10.4453125 83.04296875 C9.23488281 82.03169922 9.23488281 82.03169922 8 81 C7.30650452 80.43080841 6.61300903 79.86161682 5.89849854 79.275177 C3.41119216 76.29436761 3.38682961 74.40749595 3.17871094 70.55419922 C3.09893005 69.24538788 3.01914917 67.93657654 2.93695068 66.58810425 C2.86895303 65.16032109 2.80144007 63.73251477 2.734375 62.3046875 C2.65196768 60.83211624 2.5679786 59.35963273 2.48248291 57.88723755 C2.26189901 54.00878256 2.06433514 50.12947264 1.87109375 46.24957275 C1.7107917 43.10614965 1.53457336 39.96371915 1.35735703 36.82121086 C-0.15645474 9.95558859 -0.15645474 9.95558859 0 0 Z " fill="#3DB4E5" transform="translate(281,32)"/>
<path d="M0 0 C7.26 0 14.52 0 22 0 C25 15 28 30 31 45 C31.33 45 31.66 45 32 45 C32.23783203 43.70255859 32.23783203 43.70255859 32.48046875 42.37890625 C34.12745654 33.48881195 35.85479457 24.61640355 37.625 15.75 C37.84309326 14.65502197 38.06118652 13.56004395 38.28588867 12.43188477 C38.49318604 11.39733154 38.7004834 10.36277832 38.9140625 9.296875 C39.0992041 8.37229492 39.2843457 7.44771484 39.47509766 6.49511719 C39.93292392 4.31884539 40.46062324 2.15750702 41 0 C47.93 0 54.86 0 62 0 C62 22.77 62 45.54 62 69 C57.71 69 53.42 69 49 69 C48.67 53.16 48.34 37.32 48 21 C47.113125 25.2075 46.22625 29.415 45.3125 33.75 C42.79970019 45.57103013 40.04489352 57.30545321 37 69 C33.37 69 29.74 69 26 69 C23.47248234 62.19333616 22.243854 55.05940971 20.76757812 47.97070312 C20.44756836 46.45959961 20.44756836 46.45959961 20.12109375 44.91796875 C19.9295874 43.99781982 19.73808105 43.0776709 19.54077148 42.12963867 C19.20093533 40.0304932 19.20093533 40.0304932 18 39 C16.515 30.585 16.515 30.585 15 22 C14.67 37.84 14.34 53.68 14 70 C9.38 70 4.76 70 0 70 C0 46.9 0 23.8 0 0 Z " fill="#42B5E6" transform="translate(102,90)"/>
<path d="M0 0 C4.62 0 9.24 0 14 0 C14.33 6.6 14.66 13.2 15 20 C16.98 18.68 18.96 17.36 21 16 C25.02151356 15.061154 28.41455391 15.786087 32.25 17.1875 C37.30592925 20.519817 39.5332397 24.20220498 41 30 C41.31639166 34.08579069 41.32453413 38.15358255 41.3125 42.25 C41.33666992 43.87228516 41.33666992 43.87228516 41.36132812 45.52734375 C41.36627339 53.72660045 40.83380729 61.52858607 35.5 68.0625 C30.77715279 71.72270659 25.74862335 71.53177058 20 71 C15.48684211 68.97368421 15.48684211 68.97368421 14 66 C13.67 67.32 13.34 68.64 13 70 C8.71 70 4.42 70 0 70 C0 46.9 0 23.8 0 0 Z " fill="#42B5E3" transform="translate(167,176)"/>
<path d="M0 0 C1.16015625 0.10054687 1.16015625 0.10054687 2.34375 0.203125 C4.89940261 0.85129776 5.90109613 1.67962448 7.5 3.75 C7.5 4.41 7.5 5.07 7.5 5.75 C8.16 5.75 8.82 5.75 9.5 5.75 C9.83 4.43 10.16 3.11 10.5 1.75 C13.14 1.75 15.78 1.75 18.5 1.75 C18.6273463 9.54197634 18.71458062 17.33368179 18.7746582 25.12646484 C18.79971759 27.77435332 18.83377435 30.42217322 18.87719727 33.06982422 C18.93822279 36.88786804 18.96629732 40.70499294 18.98828125 44.5234375 C19.01408768 45.69675629 19.0398941 46.87007507 19.06648254 48.07894897 C19.0689971 55.53898673 18.06055504 61.64984899 13.5 67.75 C7.56608853 72.1079027 0.66837073 72.8220071 -6.5 71.75 C-10.37119334 70.43379426 -12.91006564 68.51120562 -15.4375 65.25 C-16.5 62.75 -16.5 62.75 -16.5 58.75 C-13.86 58.75 -11.22 58.75 -8.5 58.75 C-8.066875 59.7090625 -8.066875 59.7090625 -7.625 60.6875 C-6.67176549 62.90206079 -6.67176549 62.90206079 -4.5 63.75 C-0.29907375 64.24470367 3.28821114 64.40022817 7.0625 62.375 C9.29015889 58.30710116 8.81179274 54.28831648 8.5 49.75 C7.901875 50.224375 7.30375 50.69875 6.6875 51.1875 C2.59842569 54.10826736 -1.62706334 54.27551278 -6.5 53.75 C-11.42569714 51.62299442 -14.31109182 48.12781636 -16.6875 43.375 C-19.86122501 33.12142688 -20.54478517 18.61203252 -15.84375 8.7734375 C-11.96480673 2.9324706 -7.166572 -0.7166572 0 0 Z " fill="#47B5E2" transform="translate(402.5,192.25)"/>
<path d="M0 0 C3.71103369 3.89658538 4.58788813 6.66761417 4.625 11.9375 C4.58375 13.154375 4.5425 14.37125 4.5 15.625 C-0.12 15.625 -4.74 15.625 -9.5 15.625 C-9.603125 14.51125 -9.70625 13.3975 -9.8125 12.25 C-10.039375 11.05375 -10.26625 9.8575 -10.5 8.625 C-14.20415293 6.15556471 -16.12144505 6.15586911 -20.5 6.625 C-23.12541413 8.82696024 -23.4445448 10.24473579 -23.9375 13.625 C-23.37947413 17.45146312 -22.44796875 18.15823692 -19.5 20.625 C-16.94356235 22.10703463 -14.29847947 23.36920047 -11.625 24.625 C2.83989781 31.49515555 2.83989781 31.49515555 6.5 38.625 C6.99609375 42.28125 6.99609375 42.28125 6.9375 46.125 C6.93621094 47.3934375 6.93492188 48.661875 6.93359375 49.96875 C6.16552541 56.44543438 3.41204464 60.41340737 -1.56640625 64.3671875 C-8.16997179 68.66284023 -16.9301722 68.37457953 -24.5 67.625 C-30.20472771 66.09547156 -34.41128524 63.8140408 -37.5 58.625 C-39.63815565 53.81414978 -39.67818302 49.79230754 -39.5 44.625 C-34.88 44.625 -30.26 44.625 -25.5 44.625 C-24.5 48.625 -23.5 52.625 -22.5 56.625 C-20.89482903 56.53766424 -19.29078338 56.42947776 -17.6875 56.3125 C-16.79417969 56.25449219 -15.90085937 56.19648438 -14.98046875 56.13671875 C-12.15604766 55.5540429 -11.25261387 54.86414391 -9.5 52.625 C-8.05569145 49.73638291 -8.12311494 47.82852299 -8.5 44.625 C-12.03193439 40.31857716 -15.65903456 38.49414032 -20.8125 36.75 C-27.75477626 34.18556855 -34.23835979 31.19321368 -37.6796875 24.2421875 C-39.69013153 17.8279137 -39.24960045 10.558688 -36.53515625 4.41015625 C-33.88021756 -0.16836066 -30.78844083 -3.28922303 -25.625 -4.75 C-16.77057548 -6.37666511 -7.35599026 -5.68743637 0 0 Z " fill="#41B4E4" transform="translate(41.5,93.375)"/>
<path d="M0 0 C4.59016013 3.05017134 6.6110118 6.92715108 7.8046875 12.19921875 C7.95552117 15.55275398 7.8955148 18.83860875 7.8046875 22.19921875 C3.1846875 22.19921875 -1.4353125 22.19921875 -6.1953125 22.19921875 C-6.2984375 20.79671875 -6.4015625 19.39421875 -6.5078125 17.94921875 C-6.83396834 15.22410087 -7.20111872 13.18521551 -8.2578125 10.63671875 C-11.41224154 8.29633591 -14.34839805 8.94696207 -18.1953125 9.19921875 C-21.18359035 14.21187777 -21.65078824 18.00642738 -21.62890625 23.66796875 C-21.63676903 24.86576965 -21.63676903 24.86576965 -21.64479065 26.08776855 C-21.65118677 27.76862429 -21.64990519 29.44952493 -21.64135742 31.13037109 C-21.63283686 33.69189545 -21.6616564 36.25119491 -21.69335938 38.8125 C-21.69497146 40.45182225 -21.69439371 42.09114843 -21.69140625 43.73046875 C-21.70264023 44.49000854 -21.71387421 45.24954834 -21.72544861 46.03210449 C-21.65891357 51.14548077 -20.6740393 54.20935898 -17.1953125 58.19921875 C-13.65209697 59.11602095 -13.65209697 59.11602095 -10.1953125 58.19921875 C-7.44868274 54.60244168 -6.64078514 51.31752726 -6.0078125 46.88671875 C-5.7396875 45.00984375 -5.4715625 43.13296875 -5.1953125 41.19921875 C-0.5753125 41.19921875 4.0446875 41.19921875 8.8046875 41.19921875 C9.11767462 49.80636459 8.42114931 57.29899424 2.8046875 64.19921875 C-3.34331973 69.88612543 -9.371446 69.63324601 -17.48046875 69.48046875 C-23.52635342 69.02273616 -27.22132315 67.38217483 -31.26171875 62.9140625 C-37.4596697 54.21188894 -37.55520035 43.73454659 -37.5703125 33.44921875 C-37.57192383 32.39637695 -37.57353516 31.34353516 -37.57519531 30.25878906 C-37.43249985 20.17180543 -36.632993 10.49978157 -29.9453125 2.51171875 C-21.4688023 -4.61625573 -9.78390329 -5.10698249 0 0 Z " fill="#41B5E4" transform="translate(102.1953125,177.80078125)"/>
<path d="M0 0 C4.49354429 2.61821432 6.81495621 5.62829981 8.3046875 10.6796875 C10.98476778 23.05211291 11.43427658 37.27840112 4.625 48.375 C0.12090079 52.54129177 -3.20020611 53.53447939 -9.25 53.625 C-10.79300781 53.66367188 -10.79300781 53.66367188 -12.3671875 53.703125 C-17.49171592 53.14408554 -21.17983239 50.31570672 -24.375 46.375 C-29.63216626 35.25317272 -29.96723411 22.08072839 -26.375 10.375 C-24.45999083 5.22463323 -21.39400748 1.92168264 -16.6484375 -0.7421875 C-11.02081747 -2.92748325 -5.46537827 -2.40761088 0 0 Z " fill="#44B4E2" transform="translate(368.375,193.625)"/>
<path d="M0 0 C28.93333333 0 28.93333333 0 34.875 5.8125 C38.97183176 11.95774764 39.87517967 17.73600873 39 25 C37.22277069 31.38186888 34.46565971 35.3190455 29 39 C24.62229428 41.25971501 20.49969377 41.23594112 15.6875 41.125 C11.8821875 41.063125 11.8821875 41.063125 8 41 C8 50.57 8 60.14 8 70 C5.36 70 2.72 70 0 70 C0 46.9 0 23.8 0 0 Z " fill="#40B5E5" transform="translate(268,176)"/>
<path d="M0 0 C5.65313713 3.34573422 8.41404924 6.46263809 10.0625 12.8125 C10.28331435 15.61281182 10.25295727 18.38094717 10.1875 21.1875 C10.14625 23.70375 10.105 26.22 10.0625 28.8125 C1.4825 28.8125 -7.0975 28.8125 -15.9375 28.8125 C-15.64875 30.91625 -15.36 33.02 -15.0625 35.1875 C-14.81886719 36.96253906 -14.81886719 36.96253906 -14.5703125 38.7734375 C-14.2072415 41.90816659 -14.2072415 41.90816659 -11.9375 43.8125 C-9.48040625 44.39600505 -9.48040625 44.39600505 -6.9375 43.8125 C-4.60460873 40.81306837 -3.86867359 38.53719435 -2.9375 34.8125 C1.0225 34.8125 4.9825 34.8125 9.0625 34.8125 C9.55143197 40.67968367 8.68135469 45.04595139 5.0625 49.8125 C-0.24094399 54.56960931 -6.79191908 54.25364207 -13.5703125 54.24609375 C-19.18625147 53.5229276 -23.34787167 51.1713344 -26.9375 46.8125 C-32.36258507 36.53339145 -30.97664275 21.12655937 -27.9140625 10.37890625 C-26.08052463 5.56036872 -23.5527143 2.99436412 -19.375 -0.0625 C-13.22978958 -2.07365977 -6.12166342 -2.34932258 0 0 Z " fill="#40B4E5" transform="translate(243.9375,193.1875)"/>
<path d="M0 0 C3.70390021 2.02666238 5.65363011 3.48044516 8 7 C8.7425 6.21625 9.485 5.4325 10.25 4.625 C14.04637723 1.00118538 15.61708671 0.13383032 20.875 -0.375 C25.17888253 -0.27061479 27.67949059 1.23290883 31 4 C34.74852407 9.62278611 34.1366044 16.02074523 34.09765625 22.5546875 C34.0962413 23.45623566 34.09482635 24.35778381 34.09336853 25.28665161 C34.0877974 28.149469 34.07525026 31.01220648 34.0625 33.875 C34.05748127 35.82291553 34.05291901 37.7708323 34.04882812 39.71875 C34.03783742 44.47919718 34.02059277 49.23958507 34 54 C31.03 54 28.06 54 25 54 C24.970271 52.11510864 24.970271 52.11510864 24.93994141 50.19213867 C24.86393003 45.53470653 24.77520577 40.87758865 24.68261719 36.22045898 C24.64430896 34.20392048 24.60945935 32.18731322 24.578125 30.1706543 C24.53251451 27.27367558 24.47451361 24.37717104 24.4140625 21.48046875 C24.40251129 20.57725388 24.39096008 19.674039 24.37905884 18.74345398 C24.35918915 17.90280899 24.33931946 17.062164 24.31884766 16.19604492 C24.30552399 15.45658127 24.29220032 14.71711761 24.2784729 13.95524597 C24.09785588 11.67895835 24.09785588 11.67895835 22 9 C20.09293424 8.59912669 20.09293424 8.59912669 18 8.75 C16.948125 8.77320313 16.948125 8.77320313 15.875 8.796875 C13.91063372 8.89956666 13.91063372 8.89956666 12 10 C10.30763687 12.76369615 9.74225555 14.90787418 9.68115234 18.12597656 C9.66128265 18.92650452 9.64141296 19.72703247 9.62094116 20.55181885 C9.60361435 21.83327789 9.60361435 21.83327789 9.5859375 23.140625 C9.56657135 24.02280701 9.5472052 24.90498901 9.5272522 25.81390381 C9.46757152 28.62583816 9.42111717 31.4378137 9.375 34.25 C9.33680962 36.15887181 9.29775727 38.06772659 9.2578125 39.9765625 C9.16187942 44.65090296 9.07780584 49.32532409 9 54 C6.03 54 3.06 54 0 54 C-0.01981934 52.74340576 -0.03963867 51.48681152 -0.06005859 50.19213867 C-0.13606997 45.53470653 -0.22479423 40.87758865 -0.31738281 36.22045898 C-0.35569104 34.20392048 -0.39054065 32.18731322 -0.421875 30.1706543 C-0.46748549 27.27367558 -0.52548639 24.37717104 -0.5859375 21.48046875 C-0.59748871 20.57725388 -0.60903992 19.674039 -0.62094116 18.74345398 C-0.64081085 17.90280899 -0.66068054 17.062164 -0.68115234 16.19604492 C-0.69447601 15.45658127 -0.70779968 14.71711761 -0.7215271 13.95524597 C-0.90214412 11.67895835 -0.90214412 11.67895835 -3 9 C-8.88489457 8.4459433 -8.88489457 8.4459433 -14 11 C-14.88565586 13.65696758 -15.1450262 15.28190083 -15.20532227 18.01245117 C-15.22526749 18.81305466 -15.24521271 19.61365814 -15.26576233 20.43852234 C-15.29083107 21.72772331 -15.29083107 21.72772331 -15.31640625 23.04296875 C-15.33718735 23.9265657 -15.35796844 24.81016266 -15.37937927 25.72053528 C-15.44475754 28.54277785 -15.50370528 31.36511335 -15.5625 34.1875 C-15.60569637 36.10092106 -15.64931102 38.01433273 -15.69335938 39.92773438 C-15.80042695 44.61839437 -15.90172752 49.30914783 -16 54 C-18.97 54 -21.94 54 -25 54 C-25 36.84 -25 19.68 -25 2 C-22.03 2 -19.06 2 -16 2 C-16 2.99 -16 3.98 -16 5 C-15.071875 4.360625 -14.14375 3.72125 -13.1875 3.0625 C-8.61018585 0.10070849 -5.41139744 -0.458593 0 0 Z " fill="#47B6E3" transform="translate(599,192)"/>
<path d="M0 0 C2.125 1.625 2.125 1.625 3.125 3.625 C5.57293496 3.18786876 6.92935254 2.79890885 8.8125 1.125 C12.35014731 -1.16969015 15.96116178 -1.375 20.125 -1.375 C24.19052129 -0.38120591 26.38923001 1.49840573 29.125 4.625 C30.31195418 6.99890836 30.24575833 8.42744951 30.23852539 11.07470703 C30.23844986 11.99551056 30.23837433 12.91631409 30.23829651 13.86502075 C30.23313522 14.86089203 30.22797394 15.85676331 30.22265625 16.8828125 C30.2212413 17.90100067 30.21982635 18.91918884 30.21836853 19.9682312 C30.212759 23.22885035 30.20020488 26.48940151 30.1875 29.75 C30.18248623 31.95703026 30.17792311 34.16406159 30.17382812 36.37109375 C30.16278648 41.78908581 30.14603905 47.20703805 30.125 52.625 C27.485 52.625 24.845 52.625 22.125 52.625 C22.095271 50.74010864 22.095271 50.74010864 22.06494141 48.81713867 C21.98893003 44.15970653 21.90020577 39.50258865 21.80761719 34.84545898 C21.76930896 32.82892048 21.73445935 30.81231322 21.703125 28.7956543 C21.65751451 25.89867558 21.59951361 23.00217104 21.5390625 20.10546875 C21.52751129 19.20225388 21.51596008 18.299039 21.50405884 17.36845398 C21.48418915 16.52780899 21.46431946 15.687164 21.44384766 14.82104492 C21.43052399 14.08158127 21.41720032 13.34211761 21.4034729 12.58024597 C21.22285588 10.30395835 21.22285588 10.30395835 19.125 7.625 C17.02657631 7.14777528 17.02657631 7.14777528 14.6875 7.25 C13.51380859 7.23839844 13.51380859 7.23839844 12.31640625 7.2265625 C9.58500259 7.72318135 8.84317263 8.47756241 7.125 10.625 C6.65663329 12.61367852 6.65663329 12.61367852 6.69262695 14.82104492 C6.67283279 15.66168991 6.65303864 16.5023349 6.63264465 17.36845398 C6.62305977 18.72327629 6.62305977 18.72327629 6.61328125 20.10546875 C6.59533005 21.03345779 6.57737885 21.96144684 6.55888367 22.91755676 C6.50468709 25.88249157 6.470855 28.84726455 6.4375 31.8125 C6.40433518 33.82228819 6.36984631 35.832055 6.33398438 37.84179688 C6.24895521 42.76941465 6.18218862 47.69698364 6.125 52.625 C3.155 52.625 0.185 52.625 -2.875 52.625 C-2.89481934 51.36840576 -2.91463867 50.11181152 -2.93505859 48.81713867 C-3.01106997 44.15970653 -3.09979423 39.50258865 -3.19238281 34.84545898 C-3.23069104 32.82892048 -3.26554065 30.81231322 -3.296875 28.7956543 C-3.34248549 25.89867558 -3.40048639 23.00217104 -3.4609375 20.10546875 C-3.47248871 19.20225388 -3.48403992 18.299039 -3.49594116 17.36845398 C-3.51581085 16.52780899 -3.53568054 15.687164 -3.55615234 14.82104492 C-3.56947601 14.08158127 -3.58279968 13.34211761 -3.5965271 12.58024597 C-3.77714412 10.30395835 -3.77714412 10.30395835 -5.875 7.625 C-11.60570654 6.80592914 -11.60570654 6.80592914 -16.46630859 9.5847168 C-19.74455277 13.72256139 -19.60581887 16.72701411 -19.58203125 21.86328125 C-19.59715256 22.74404831 -19.61227386 23.62481537 -19.62785339 24.53227234 C-19.6707029 27.33427588 -19.67956556 30.13520158 -19.6875 32.9375 C-19.7106465 34.84182547 -19.73601216 36.74612536 -19.76367188 38.65039062 C-19.82649697 43.30868891 -19.85885369 47.9663155 -19.875 52.625 C-22.515 52.625 -25.155 52.625 -27.875 52.625 C-27.875 35.465 -27.875 18.305 -27.875 0.625 C-25.235 0.625 -22.595 0.625 -19.875 0.625 C-19.545 1.615 -19.215 2.605 -18.875 3.625 C-17.946875 2.985625 -17.01875 2.34625 -16.0625 1.6875 C-10.8193962 -1.70509657 -5.81060347 -2.77898427 0 0 Z " fill="#45B5E4" transform="translate(531.875,193.375)"/>
<path d="M0 0 C4.62 0 9.24 0 14 0 C14.01981934 1.16571533 14.03963867 2.33143066 14.06005859 3.5324707 C14.13608959 7.85446905 14.22481076 12.17612962 14.31738281 16.49780273 C14.35568294 18.36882868 14.390534 20.23992853 14.421875 22.11108398 C14.46750324 24.79958519 14.52550088 27.48757723 14.5859375 30.17578125 C14.59748871 31.01337479 14.60903992 31.85096832 14.62094116 32.71394348 C14.72046457 36.62373037 14.7847302 38.6770953 17 42 C20.43230448 41.73606499 20.43230448 41.73606499 24 41 C26.57069617 37.14395575 26.35065056 33.87253657 26.4140625 29.39453125 C26.43342865 28.55532639 26.4527948 27.71612152 26.4727478 26.85148621 C26.53251213 24.17192742 26.57891612 21.4923256 26.625 18.8125 C26.6631827 16.99542401 26.70223461 15.17836606 26.7421875 13.36132812 C26.83821103 8.90769868 26.92225359 4.45398449 27 0 C31.29 0 35.58 0 40 0 C40 17.16 40 34.32 40 52 C35.71 52 31.42 52 27 52 C26.67 51.01 26.34 50.02 26 49 C25.071875 49.66 24.14375 50.32 23.1875 51 C18.3170116 53.7619233 13.45481554 53.94473462 8 53 C4.43346939 51.33703434 2.46875486 49.05615388 0.85986328 45.43115234 C-0.2595197 40.96442651 -0.24862975 36.81179427 -0.1953125 32.2265625 C-0.1924826 31.3028183 -0.18965271 30.3790741 -0.18673706 29.42733765 C-0.17559179 26.49309024 -0.15049765 23.5591543 -0.125 20.625 C-0.11496289 18.62891068 -0.10583832 16.63281654 -0.09765625 14.63671875 C-0.07567097 9.75769351 -0.04118017 4.87889946 0 0 Z " fill="#41B5E5" transform="translate(118,194)"/>
<path d="M0 0 C0 0.66 0 1.32 0 2 C0.5775 2.0825 1.155 2.165 1.75 2.25 C4.88457694 3.29485898 6.01267371 4.32241523 8 7 C8.55952559 10.12233688 8.46515737 13.19622132 8.390625 16.359375 C8.38496521 17.26375305 8.37930542 18.1681311 8.37347412 19.09991455 C8.35111248 21.98381853 8.30091686 24.86647261 8.25 27.75 C8.22993471 29.70701329 8.21168399 31.66404608 8.1953125 33.62109375 C8.15124839 38.41454289 8.08222252 43.20705965 8 48 C9.65 48 11.3 48 13 48 C13.04254356 49.99954746 13.04080783 52.00041636 13 54 C12 55 12 55 8.125 55.25 C4.30798678 55.20211632 4.30798678 55.20211632 2 53.6875 C1 52 1 52 1 49 C0.34 49 -0.32 49 -1 49 C-1.33 49.99 -1.66 50.98 -2 52 C-7.17547201 55.67730906 -12.8784231 55.98998796 -19 55 C-22.66807786 53.13741572 -24.6801976 50.95940719 -26 47 C-26.14554833 44.8783532 -26.22080412 42.75143294 -26.25 40.625 C-26.27578125 39.50351563 -26.3015625 38.38203125 -26.328125 37.2265625 C-25.88301322 32.84962995 -24.42809164 30.40484363 -21.3203125 27.34765625 C-18.00973585 25.42484658 -14.5439073 24.47778946 -10.875 23.4375 C-5.48011272 22.08976645 -5.48011272 22.08976645 -1 19 C-0.53993654 16.79749008 -0.53993654 16.79749008 -0.375 14.375 C-0.30023438 13.55773437 -0.22546875 12.74046875 -0.1484375 11.8984375 C-0.09945313 11.27195313 -0.05046875 10.64546875 0 10 C-4.05152014 7.73910707 -7.42552643 7.24854644 -12 8 C-15.24499591 10.16333061 -15.87172124 11.44412537 -16.75 15.25 C-16.8325 16.1575 -16.915 17.065 -17 18 C-19.64 18 -22.28 18 -25 18 C-25.27312207 12.62859937 -25.40444214 9.41316574 -22 5 C-21.5875 4.443125 -21.175 3.88625 -20.75 3.3125 C-14.78925737 -1.15805698 -7.04562285 -0.20824501 0 0 Z " fill="#45B6E5" transform="translate(484,192)"/>
<path d="M0 0 C3.91547232 2.38442224 6.25004552 6.01413014 7.453125 10.3828125 C8.21381802 15.92160854 7.88025528 21.53534086 7.828125 27.11328125 C-1.081875 27.11328125 -9.991875 27.11328125 -19.171875 27.11328125 C-18.8315625 30.42359375 -18.8315625 30.42359375 -18.484375 33.80078125 C-18.35675781 35.04214844 -18.22914063 36.28351563 -18.09765625 37.5625 C-16.99791111 41.78050985 -15.55555575 43.42757949 -12.171875 46.11328125 C-9.08628199 46.78049661 -9.08628199 46.78049661 -6.171875 46.11328125 C-3.59445106 44.03471356 -2.55148422 42.02547945 -1.484375 38.92578125 C-1.23300781 38.21035156 -0.98164062 37.49492187 -0.72265625 36.7578125 C-0.54089844 36.21511719 -0.35914063 35.67242187 -0.171875 35.11328125 C2.468125 35.11328125 5.108125 35.11328125 7.828125 35.11328125 C7.58730145 41.85634065 5.81845167 46.41000877 0.828125 51.11328125 C-2.87594511 53.03368002 -6.02664056 53.40991938 -10.171875 53.42578125 C-11.1825 53.44253906 -12.193125 53.45929688 -13.234375 53.4765625 C-17.65247963 52.93017456 -20.23991176 51.07265518 -23.296875 47.92578125 C-27.49612637 41.6269042 -28.68560585 35.76974448 -28.546875 28.36328125 C-28.53744873 27.58049805 -28.52802246 26.79771484 -28.51831055 25.99121094 C-28.31751234 18.19928039 -27.70479305 9.97486776 -22.859375 3.55078125 C-15.93363854 -2.73070066 -8.48141374 -3.52279193 0 0 Z " fill="#46B4E2" transform="translate(670.171875,193.88671875)"/>
<path d="M0 0 C14.52 0 29.04 0 44 0 C44 3.63 44 7.26 44 11 C39.05 11 34.1 11 29 11 C29 30.14 29 49.28 29 69 C24.38 69 19.76 69 15 69 C15 49.86 15 30.72 15 11 C10.05 11 5.1 11 0 11 C0 7.37 0 3.74 0 0 Z " fill="#40B4E5" transform="translate(52,90)"/>
<path d="M0 0 C4.45455849 3.76162717 6.68835216 7.02922709 7.30078125 12.8671875 C7.33927708 22.74778501 5.07013008 28.41771341 -1.62109375 35.67578125 C-5.00239409 38.97935055 -8.67981874 41.85782817 -12.37109375 44.8046875 C-18.42406223 49.85932091 -21.67931955 53.07591729 -23 61 C-12.77 61 -2.54 61 8 61 C8 62.98 8 64.96 8 67 C-4.87 67 -17.74 67 -31 67 C-29.3928014 50.92801396 -21.50986067 43.43154035 -9.625 33.1875 C-3.64761619 28.02959623 -0.40563241 23.54308295 0.3125 15.5 C-0.03427767 11.61609014 -0.93475351 9.28909626 -3 6 C-7.44824854 3.03450097 -11.78303754 3.36550457 -17 4 C-20.52177455 6.31921739 -21.76946589 9.02442826 -23 13 C-23.37593066 14.9924325 -23.71979545 16.9918674 -24 19 C-25.98 19 -27.96 19 -30 19 C-30.45531383 12.62560643 -29.63493235 8.32807673 -26 3 C-18.61528568 -4.38471432 -8.88124779 -4.85955068 0 0 Z " fill="#46B3E1" transform="translate(251,93)"/>
<path d="M0 0 C3.55208695 3.16580799 4.72425495 6.38993048 5.2265625 11.14453125 C5.4285795 16.53471214 4.64099758 20.28393289 2 25 C-1.19354839 28 -1.19354839 28 -4 28 C-4 28.66 -4 29.32 -4 30 C-3.443125 30.0825 -2.88625 30.165 -2.3125 30.25 C0.79888018 31.25909627 2.6312518 32.75592276 5 35 C8.20960536 41.47474022 8.02657119 49.48748007 6.0625 56.375 C3.87015098 61.28217373 -0.22081269 63.8545444 -5 66 C-11.72622839 67.90042643 -18.84871199 67.44090981 -25 64 C-29.96661863 59.03338137 -31.74916062 53.89808293 -32 47 C-29.69 47 -27.38 47 -25 47 C-24.90203125 47.60328125 -24.8040625 48.2065625 -24.703125 48.828125 C-24.47882813 50.02695313 -24.47882813 50.02695313 -24.25 51.25 C-24.11078125 52.03890625 -23.9715625 52.8278125 -23.828125 53.640625 C-22.75853685 56.68794217 -21.57463406 58.05257662 -19 60 C-13.70488275 60.99055838 -8.6376747 60.88434434 -3.875 58.3125 C-0.22301048 53.80837959 0.40686495 49.89857851 0.24609375 44.21484375 C-0.12480991 40.87671084 -1.05180493 38.7274731 -3 36 C-7.51548493 32.95467295 -11.70063816 32.45684154 -17 32 C-17 30.35 -17 28.7 -17 27 C-16.32453125 26.91363281 -15.6490625 26.82726562 -14.953125 26.73828125 C-9.1387569 25.88017279 -9.1387569 25.88017279 -4.4375 22.5625 C-1.92067113 18.07597897 -1.60175669 14.05462667 -2 9 C-2.84861433 6.31272129 -3.3693032 5.38148106 -5.76953125 3.9296875 C-9.77525944 2.26004948 -13.75899945 2.21641157 -18 3 C-21.97661895 6.47954158 -23.67221678 9.93028226 -25 15 C-26.98 15 -28.96 15 -31 15 C-31.08833872 9.54823874 -30.35865048 5.81944276 -26.8125 1.5625 C-19.21653487 -6.1875415 -8.69190155 -5.87981576 0 0 Z " fill="#47B4E1" transform="translate(205,94)"/>
<path d="M0 0 C4.01707666 2.46502432 5.54892861 4.58950139 7 9 C7.40160669 12.59732501 7.32450278 16.19486356 7.3125 19.8125 C7.32861328 20.77220703 7.34472656 21.73191406 7.36132812 22.72070312 C7.36590691 29.42861843 6.90436173 35.79518706 2.1875 41 C-0.8478696 42.38759753 -2.69568251 42.53948041 -6 42 C-10.15207129 38.79158128 -11.70633451 36.00792284 -13 31 C-13.30003301 27.89082738 -13.32483944 24.80937922 -13.3125 21.6875 C-13.32861328 20.88376953 -13.34472656 20.08003906 -13.36132812 19.25195312 C-13.36651482 12.80488615 -12.5832773 5.93959141 -8.1875 0.9375 C-5.18682539 -0.3485034 -3.23776639 -0.46253806 0 0 Z " fill="#F6FCFB" transform="translate(362,199)"/>
<path d="M0 0 C3.38473864 0.09828642 4.15865739 0.41680856 7.0625 2.5 C12.26983914 9.69838057 11.82023114 17.83235648 11.1875 26.4375 C10.3271959 30.8834511 8.9883548 34.30525701 6.375 38 C3.35357127 39.98551031 1.73655304 40.08936688 -1.8125 39.4375 C-5.58893602 36.34768871 -8.45909729 33.22074268 -9.0871582 28.27441406 C-9.115624 25.74494854 -9.13421884 23.21714881 -9.125 20.6875 C-9.14111328 19.81867188 -9.15722656 18.94984375 -9.17382812 18.0546875 C-9.17824997 12.16478932 -8.28316708 7.79962904 -5.8125 2.4375 C-3.8125 0.4375 -3.8125 0.4375 0 0 Z " fill="#F5FCFD" transform="translate(401.8125,199.5625)"/>
<path d="M0 0 C1 1 1 1 1.09765625 2.84765625 C1.06510417 4.8984375 1.03255208 6.94921875 1 9 C0.24074219 9.09796875 -0.51851562 9.1959375 -1.30078125 9.296875 C-2.29464844 9.44640625 -3.28851562 9.5959375 -4.3125 9.75 C-5.29863281 9.88921875 -6.28476562 10.0284375 -7.30078125 10.171875 C-10.69691431 11.21381452 -11.30729225 11.88861884 -13 15 C-13.47123539 17.96989633 -13.48866868 20.91908141 -13.51171875 23.921875 C-13.52966995 24.78186096 -13.54762115 25.64184692 -13.56611633 26.52789307 C-13.62020038 29.26854584 -13.65410863 32.00902465 -13.6875 34.75 C-13.72067479 36.61070128 -13.7551646 38.47137961 -13.79101562 40.33203125 C-13.87592569 44.88789528 -13.94274584 49.44370788 -14 54 C-16.97 54 -19.94 54 -23 54 C-23 36.84 -23 19.68 -23 2 C-20.03 2 -17.06 2 -14 2 C-13.67 3.32 -13.34 4.64 -13 6 C-12.21625 5.195625 -11.4325 4.39125 -10.625 3.5625 C-6.90635611 -0.06760475 -5.11723564 -0.21775471 0 0 Z " fill="#50B9E8" transform="translate(710,192)"/>
<path d="M0 0 C0 2.64 0 5.28 0 8 C-1.15628906 8.03867188 -1.15628906 8.03867188 -2.3359375 8.078125 C-3.33882813 8.13484375 -4.34171875 8.1915625 -5.375 8.25 C-6.37273437 8.29640625 -7.37046875 8.3428125 -8.3984375 8.390625 C-11.12746299 8.71812004 -11.12746299 8.71812004 -12.2890625 10.921875 C-12.52367187 11.60765625 -12.75828125 12.2934375 -13 13 C-13.33 13.66 -13.66 14.32 -14 15 C-14.15706331 17.84208026 -14.2584957 20.66337307 -14.31640625 23.5078125 C-14.33718735 24.34843231 -14.35796844 25.18905212 -14.37937927 26.05514526 C-14.44485439 28.74501235 -14.5037502 31.43497843 -14.5625 34.125 C-14.60568716 35.94662489 -14.64930152 37.76823971 -14.69335938 39.58984375 C-14.80053368 44.05979394 -14.90180685 48.52984386 -15 53 C-17.97 53 -20.94 53 -24 53 C-24 35.84 -24 18.68 -24 1 C-21.03 1 -18.06 1 -15 1 C-14.67 2.32 -14.34 3.64 -14 5 C-13.21625 4.195625 -12.4325 3.39125 -11.625 2.5625 C-7.4232604 -1.53919818 -5.67269957 -0.94544993 0 0 Z " fill="#50B8E6" transform="translate(455,193)"/>
<path d="M0 0 C0 2.97 0 5.94 0 9 C-0.68707031 9.09796875 -1.37414062 9.1959375 -2.08203125 9.296875 C-2.98308594 9.44640625 -3.88414062 9.5959375 -4.8125 9.75 C-5.70582031 9.88921875 -6.59914063 10.0284375 -7.51953125 10.171875 C-10.55907103 11.18665049 -11.39787571 12.27082929 -13 15 C-14.24473532 18.73420597 -14.23209785 22.27365238 -14.31640625 26.16796875 C-14.33718735 26.96278152 -14.35796844 27.7575943 -14.37937927 28.57649231 C-14.44472087 31.11340763 -14.50368808 33.65042573 -14.5625 36.1875 C-14.60569986 37.90821372 -14.64931463 39.62891708 -14.69335938 41.34960938 C-14.80038648 45.56630113 -14.90169724 49.7830962 -15 54 C-17.64 54 -20.28 54 -23 54 C-23 36.84 -23 19.68 -23 2 C-20.03 2 -17.06 2 -14 2 C-13.67 2.99 -13.34 3.98 -13 5 C-12.154375 4.175 -11.30875 3.35 -10.4375 2.5 C-7.03972892 -0.3787798 -4.43607134 -0.44360713 0 0 Z " fill="#3CB4E8" transform="translate(337,192)"/>
<path d="M0 0 C14.65384615 0 14.65384615 0 19.8125 4.625 C22.3411776 9.6823552 22.43929456 14.42370777 20.9375 19.8125 C18.54572058 23.74736292 17.25978389 25.16388625 13 27 C8.71 27 4.42 27 0 27 C0 18.09 0 9.18 0 0 Z " fill="#F3FAFC" transform="translate(276,183)"/>
<path d="M0 0 C2.64 0 5.28 0 8 0 C8.144375 1.0725 8.28875 2.145 8.4375 3.25 C8.89987947 6.79359809 8.89987947 6.79359809 9.625 9.375 C9.74875 9.91125 9.8725 10.4475 10 11 C9.67 11.33 9.34 11.66 9 12 C8.83970312 14.95529504 8.74042672 17.88982457 8.68359375 20.84765625 C8.66281265 21.7340831 8.64203156 22.62050995 8.62062073 23.53379822 C8.555026 26.376617 8.49619448 29.21953117 8.4375 32.0625 C8.3943242 33.98503606 8.35071022 35.90756234 8.30664062 37.83007812 C8.19933457 42.55328668 8.09809549 47.27659153 8 52 C5.36 52 2.72 52 0 52 C0 34.84 0 17.68 0 0 Z " fill="#3DB3EC" transform="translate(504,194)"/>
<path d="M0 0 C1.546875 0.185625 1.546875 0.185625 3.125 0.375 C4.9375 2.75 4.9375 2.75 6.125 5.375 C6.455 6.035 6.785 6.695 7.125 7.375 C7.64070671 16.50895922 7.8411243 24.85888181 4.125 33.375 C-1.19610092 34.70527523 -1.19610092 34.70527523 -4.1875 33.25 C-8.10003547 28.90273837 -7.09289906 21.91241159 -7.125 16.375 C-7.145625 15.48554688 -7.16625 14.59609375 -7.1875 13.6796875 C-7.21701675 8.73563153 -7.08867399 5.40020783 -3.875 1.375 C-2.875 0.375 -2.875 0.375 0 0 Z " fill="#F2FCFC" transform="translate(187.875,202.625)"/>
<path d="M0 0 C1.63001953 0.15275391 1.63001953 0.15275391 3.29296875 0.30859375 C4.12441406 0.39238281 4.95585937 0.47617188 5.8125 0.5625 C5.4825 1.5525 5.1525 2.5425 4.8125 3.5625 C2.59765625 4.625 2.59765625 4.625 -0.125 5.5625 C-4.399591 6.99597107 -4.399591 6.99597107 -7.1875 10.5625 C-7.42937651 13.30768321 -7.42937651 13.30768321 -7.3125 16.25 C-7.28542969 17.74080078 -7.28542969 17.74080078 -7.2578125 19.26171875 C-7.23460937 20.02097656 -7.21140625 20.78023437 -7.1875 21.5625 C-1.09910925 22.77023419 -1.09910925 22.77023419 4.6875 21.125 C5.38875 20.609375 6.09 20.09375 6.8125 19.5625 C7.8025 19.5625 8.7925 19.5625 9.8125 19.5625 C9.4825 20.2225 9.1525 20.8825 8.8125 21.5625 C9.8025 21.8925 10.7925 22.2225 11.8125 22.5625 C11.4825 23.8825 11.1525 25.2025 10.8125 26.5625 C10.8125 25.5725 10.8125 24.5825 10.8125 23.5625 C10.1525 23.5625 9.4925 23.5625 8.8125 23.5625 C8.4825 24.5525 8.1525 25.5425 7.8125 26.5625 C2.63702799 30.23980906 -3.0659231 30.55248796 -9.1875 29.5625 C-12.85557786 27.69991572 -14.8676976 25.52190719 -16.1875 21.5625 C-16.33304833 19.4408532 -16.40830412 17.31393294 -16.4375 15.1875 C-16.46328125 14.06601563 -16.4890625 12.94453125 -16.515625 11.7890625 C-16.06401164 7.34819778 -14.52202174 4.73020652 -11.1875 1.8125 C-7.28404689 -0.62715819 -4.45618378 -0.43124359 0 0 Z " fill="#41B4E2" transform="translate(474.1875,217.4375)"/>
<path d="M0 0 C0.66 0.33 1.32 0.66 2 1 C1.67 1.99 1.34 2.98 1 4 C1.99 4.33 2.98 4.66 4 5 C3.02160156 5.38671875 2.04320312 5.7734375 1.03515625 6.171875 C-0.28910052 6.69782095 -1.61331709 7.22386811 -2.9375 7.75 C-3.57751953 8.00265625 -4.21753906 8.2553125 -4.87695312 8.515625 C-9.12376076 10.2058967 -13.30516011 12.01034925 -17.47583008 13.87988281 C-22.58314996 16.14628997 -27.7313456 18.31766339 -32.875 20.5 C-33.98230469 20.97308594 -35.08960938 21.44617188 -36.23046875 21.93359375 C-43.08322646 24.84058027 -49.9749288 27.53778574 -57 30 C-57 29.34 -57 28.68 -57 28 C-56.34 28 -55.68 28 -55 28 C-55 26.35 -55 24.7 -55 23 C-49.05773022 20.3369189 -43.09102008 17.74220128 -37.08984375 15.21484375 C-36.27810196 14.87248184 -35.46636017 14.53011993 -34.63002014 14.17738342 C-32.9285891 13.46016291 -31.22696233 12.74340657 -29.52514648 12.02709961 C-26.93983139 10.9384817 -24.35563452 9.84723923 -21.77148438 8.75585938 C-20.10683828 8.05452738 -18.44212693 7.35335026 -16.77734375 6.65234375 C-16.01566391 6.33039536 -15.25398407 6.00844696 -14.46922302 5.67674255 C-12.31745538 4.77265307 -10.16085371 3.88213532 -8 3 C-7.25614044 2.6934549 -6.51228088 2.38690979 -5.74588013 2.07107544 C-3.85380122 1.31942328 -1.92865446 0.65210086 0 0 Z " fill="#E8F9F8" transform="translate(403,42)"/>
<path d="M0 0 C0.13593443 2.54348425 0.23448907 5.07961496 0.3125 7.625 C0.35439453 8.33785156 0.39628906 9.05070313 0.43945312 9.78515625 C0.53046394 13.75322799 0.21670499 16.27555834 -2.265625 19.4609375 C-6.15827132 23.07553765 -7.79070857 23 -13 23 C-15.4375 22.25 -15.4375 22.25 -17 21 C-18.24605362 17.26183913 -18.62465896 13.8774562 -18 10 C-14.85555844 5.17103618 -6.01209556 0 0 0 Z " fill="#F3FAFC" transform="translate(484,218)"/>
<path d="M0 0 C0.66 0 1.32 0 2 0 C2 3.96 2 7.92 2 12 C12.23 12 22.46 12 33 12 C33 13.98 33 15.96 33 18 C20.13 18 7.26 18 -6 18 C-4.870319 6.70319001 -4.870319 6.70319001 -2.5625 3.375 C-2.13066406 2.72273437 -1.69882813 2.07046875 -1.25390625 1.3984375 C-0.63322266 0.70621094 -0.63322266 0.70621094 0 0 Z " fill="#3CB4E7" transform="translate(226,142)"/>
<path d="M0 0 C1.32 0 2.64 0 4 0 C4.33 0.66 4.66 1.32 5 2 C5.33 1.34 5.66 0.68 6 0 C10.9437963 1.61902101 14.76877911 4.48512989 18.9375 7.5 C19.68531738 8.03463867 20.43313477 8.56927734 21.20361328 9.12011719 C22.73640631 10.21659617 24.26766082 11.31522909 25.79736328 12.41601562 C28.40382469 14.29040286 31.0195967 16.15143003 33.63647461 18.01123047 C35.34496392 19.22859808 37.04776276 20.4535988 38.75 21.6796875 C40.92476487 23.23234415 43.10266926 24.75790957 45.3125 26.2578125 C46.323125 26.95648438 47.33375 27.65515625 48.375 28.375 C49.71691406 29.28378906 49.71691406 29.28378906 51.0859375 30.2109375 C51.71757812 30.80132812 52.34921875 31.39171875 53 32 C53 33.32 53 34.64 53 36 C47.73059002 35.56002985 44.31618094 32.70951934 40.1875 29.6875 C39.44411377 29.15350586 38.70072754 28.61951172 37.93481445 28.06933594 C32.12657458 23.87753149 26.4049954 19.57098742 20.69921875 15.24121094 C15.71609182 11.47890017 10.61281529 7.99304705 5.35546875 4.62109375 C3.30988248 3.21326903 1.66983157 1.82516474 0 0 Z " fill="#E7F7F9" transform="translate(284,34)"/>
<path d="M0 0 C3.57815289 0.58551593 5.03431053 0.89228948 7.4375 3.5625 C9.40031901 7.97884277 9.4375 10.52896369 9.4375 15.5625 C3.1675 15.5625 -3.1025 15.5625 -9.5625 15.5625 C-7.97321429 1.25892857 -7.97321429 1.25892857 0 0 Z " fill="#F3FAFC" transform="translate(660.5625,198.4375)"/>
<path d="M0 0 C3.5 0.5 3.5 0.5 5.4375 2 C6.97684003 5.62197655 6.69601854 8.57962923 6.5 12.5 C2.21 12.5 -2.08 12.5 -6.5 12.5 C-6.85789474 5.34210526 -6.85789474 5.34210526 -5.4375 2 C-3.5 0.5 -3.5 0.5 0 0 Z " fill="#F2F9FC" transform="translate(234.5,201.5)"/>
<path d="M0 0 C0 2.97 0 5.94 0 9 C-0.68707031 9.12117187 -1.37414062 9.24234375 -2.08203125 9.3671875 C-2.98308594 9.53476563 -3.88414062 9.70234375 -4.8125 9.875 C-5.70582031 10.03742188 -6.59914063 10.19984375 -7.51953125 10.3671875 C-10.22727846 10.91188449 -10.22727846 10.91188449 -13 13 C-13 11.35 -13 9.7 -13 8 C-13.66 8 -14.32 8 -15 8 C-15 6.02 -15 4.04 -15 2 C-14.01 3.485 -14.01 3.485 -13 5 C-12.154375 4.175 -11.30875 3.35 -10.4375 2.5 C-7.03972892 -0.3787798 -4.43607134 -0.44360713 0 0 Z " fill="#59B7DD" transform="translate(337,192)"/>
<path d="M0 0 C0.99 0 1.98 0 3 0 C3 11.88 3 23.76 3 36 C2.01 36 1.02 36 0 36 C0 24.12 0 12.24 0 0 Z " fill="#40B2D9" transform="translate(436,210)"/>
<path d="M0 0 C0.33 0 0.66 0 1 0 C1 11.88 1 23.76 1 36 C0.67 34.68 0.34 33.36 0 32 C-0.66 32 -1.32 32 -2 32 C-2 22.1 -2 12.2 -2 2 C-1.34 2 -0.68 2 0 2 C0 1.34 0 0.68 0 0 Z " fill="#45B4D9" transform="translate(694,210)"/>
<path d="M0 0 C0.33 0 0.66 0 1 0 C1 2.64 1 5.28 1 8 C12.88 8 24.76 8 37 8 C37.33 6.68 37.66 5.36 38 4 C38 5.98 38 7.96 38 10 C25.13 10 12.26 10 -1 10 C-0.67 6.7 -0.34 3.4 0 0 Z " fill="#73C7E7" transform="translate(221,150)"/>
<path d="M0 0 C0.99 0.66 1.98 1.32 3 2 C2.01 2.66 1.02 3.32 0 4 C-0.33 4.66 -0.66 5.32 -1 6 C-2.9609375 6.34375 -2.9609375 6.34375 -5.375 6.5 C-8.89651464 6.72941463 -9.92939296 6.95292864 -13 9 C-13.185625 8.071875 -13.185625 8.071875 -13.375 7.125 C-13.87197356 4.80879168 -13.87197356 4.80879168 -16 3 C-10.65739516 0.27186136 -6.02190663 -0.89861785 0 0 Z " fill="#54BBE5" transform="translate(197,90)"/>
<path d="M0 0 C1.98 0 3.96 0 6 0 C6 1.98 6 3.96 6 6 C4.54536519 6.38909985 3.08608793 6.76088029 1.625 7.125 C0.81289063 7.33382812 0.00078125 7.54265625 -0.8359375 7.7578125 C-1.55007813 7.83773437 -2.26421875 7.91765625 -3 8 C-3.66 7.34 -4.32 6.68 -5 6 C-4.625 3.875 -4.625 3.875 -4 2 C-2.68 2 -1.36 2 0 2 C0 1.34 0 0.68 0 0 Z " fill="#3DB3EB" transform="translate(704,194)"/>
<path d="M0 0 C0 0.99 0 1.98 0 3 C2.31 3 4.62 3 7 3 C7 3.33 7 3.66 7 4 C6.09507812 4.07347656 6.09507812 4.07347656 5.171875 4.1484375 C4.37265625 4.22320312 3.5734375 4.29796875 2.75 4.375 C1.96109375 4.44460937 1.1721875 4.51421875 0.359375 4.5859375 C-2.085877 5.01507113 -3.84836903 5.78600638 -6 7 C-6.99 6.34 -7.98 5.68 -9 5 C-9.99 5.66 -10.98 6.32 -12 7 C-9.52030127 1.00739475 -6.36870588 -0.43422995 0 0 Z " fill="#50B9E7" transform="translate(236,92)"/>
<path d="M0 0 C0.55171875 0.48082031 1.1034375 0.96164063 1.671875 1.45703125 C4.36143493 3.23954161 6.05821418 3.47751409 9.25 3.6875 C10.14203125 3.75324219 11.0340625 3.81898438 11.953125 3.88671875 C12.62859375 3.92410156 13.3040625 3.96148437 14 4 C14 4.33 14 4.66 14 5 C11.36 5 8.72 5 6 5 C6 6.32 6 7.64 6 9 C3.125 8.75 3.125 8.75 0 8 C-1.375 5.9375 -1.375 5.9375 -2 4 C-1.34 4 -0.68 4 0 4 C0 2.68 0 1.36 0 0 Z " fill="#56B8DA" transform="translate(182,151)"/>
<path d="M0 0 C1.32 0 2.64 0 4 0 C4.33 0.66 4.66 1.32 5 2 C5.33 1.34 5.66 0.68 6 0 C9.93673644 1.31224548 12.22719294 2.91910327 15 6 C14.01 6 13.02 6 12 6 C12 6.66 12 7.32 12 8 C7.44328408 6.48109469 3.68276708 4.04597738 0 1 C0 0.67 0 0.34 0 0 Z " fill="#DCF3F4" transform="translate(284,34)"/>
<path d="M0 0 C0.66 0.66 1.32 1.32 2 2 C1.67 2.33 1.34 2.66 1 3 C1.99 3.33 2.98 3.66 4 4 C3.67 5.32 3.34 6.64 3 8 C3 7.01 3 6.02 3 5 C2.34 5 1.68 5 1 5 C0.67 5.99 0.34 6.98 0 8 C-0.66 7.67 -1.32 7.34 -2 7 C-5.86061033 5.71312989 -8.94150283 5.86242382 -13 6 C-13 5.01 -13 4.02 -13 3 C-11.948125 3.226875 -10.89625 3.45375 -9.8125 3.6875 C-5.58918228 4.03367358 -4.29090863 3.51657719 -1 1 C-0.67 0.67 -0.34 0.34 0 0 Z " fill="#4DB3DC" transform="translate(482,236)"/>
<path d="M0 0 C0.66 0 1.32 0 2 0 C2.33 1.32 2.66 2.64 3 4 C3.99 3.34 4.98 2.68 6 2 C6 4.64 6 7.28 6 10 C5.01 10.495 5.01 10.495 4 11 C4 10.01 4 9.02 4 8 C2.68 8 1.36 8 0 8 C0 5.36 0 2.72 0 0 Z " fill="#59BCE3" transform="translate(438,194)"/>
<path d="M0 0 C0 3 0 3 -1.14453125 4.67578125 C-3.72620145 6.51827851 -5.55242989 6.29814953 -8.6875 6.1875 C-9.68136719 6.16042969 -10.67523438 6.13335937 -11.69921875 6.10546875 C-12.45847656 6.07066406 -13.21773438 6.03585938 -14 6 C-12 3 -12 3 -9.43359375 2.3046875 C-8.44488281 2.16289062 -7.45617187 2.02109375 -6.4375 1.875 C-2.90857631 1.61799988 -2.90857631 1.61799988 0 0 Z " fill="#DCF6F6" transform="translate(141,244)"/>
<path d="M0 0 C1.2065625 0.0309375 1.2065625 0.0309375 2.4375 0.0625 C2.4375 2.0425 2.4375 4.0225 2.4375 6.0625 C0.1275 6.0625 -2.1825 6.0625 -4.5625 6.0625 C-3.48963568 0.08511307 -3.48963568 0.08511307 0 0 Z " fill="#3BB1E9" transform="translate(333.5625,193.9375)"/>
<path d="M0 0 C1 1 1 1 1.09765625 2.84765625 C1.04882812 5.92382812 1.04882812 5.92382812 1 9 C-0.98 9 -2.96 9 -5 9 C-5 8.67 -5 8.34 -5 8 C-3.35 8 -1.7 8 0 8 C0 6.02 0 4.04 0 2 C-1.98 2 -3.96 2 -6 2 C-6 2.66 -6 3.32 -6 4 C-7.98 4.33 -9.96 4.66 -12 5 C-7.85811061 0.72004763 -6.02619466 -0.25643382 0 0 Z " fill="#6DBEDE" transform="translate(710,192)"/>
<path d="M0 0 C1.66666667 0 3.33333333 0 5 0 C4.609375 6.0546875 4.609375 6.0546875 4 8 C2.02 8.99 2.02 8.99 0 10 C0 6.7 0 3.4 0 0 Z " fill="#41B6EA" transform="translate(204,146)"/>
<path d="M0 0 C1.98 0 3.96 0 6 0 C6 1.32 6 2.64 6 4 C8.64 4 11.28 4 14 4 C14 4.33 14 4.66 14 5 C12.22950311 5.05410687 10.45853151 5.09284119 8.6875 5.125 C7.20830078 5.15980469 7.20830078 5.15980469 5.69921875 5.1953125 C3 5 3 5 0 3 C0 2.01 0 1.02 0 0 Z " fill="#50B3D7" transform="translate(462,242)"/>
<path d="M0 0 C0.66 0.33 1.32 0.66 2 1 C2 6.94 2 12.88 2 19 C0.68 19.33 -0.64 19.66 -2 20 C-1.67 18.9275 -1.34 17.855 -1 16.75 C0.41530308 11.20839078 0.17036936 5.67897871 0 0 Z " fill="#DDF8F7" transform="translate(306,189)"/>
<path d="M0 0 C3.2578125 0.0234375 3.2578125 0.0234375 7.125 0.375 C8.40632813 0.48585937 9.68765625 0.59671875 11.0078125 0.7109375 C11.99523437 0.80632812 12.98265625 0.90171875 14 1 C12.69593116 3.01920337 11.36176581 5.01924973 10 7 C9.67 7 9.34 7 9 7 C9 5.35 9 3.7 9 2 C5.37 2 1.74 2 -2 2 C-1.34 1.34 -0.68 0.68 0 0 Z " fill="#E9F7F9" transform="translate(314,192)"/>
<path d="M0 0 C3.70293685 -0.33663062 5.39534381 -0.47736015 8.375 1.875 C10 4 10 4 10 6 C10.66 6 11.32 6 12 6 C12.33 6.99 12.66 7.98 13 9 C7.97290493 7.42903279 3.97133531 4.38006951 0 1 C0 0.67 0 0.34 0 0 Z " fill="#55B6E0" transform="translate(292,34)"/>
<path d="M0 0 C0.886875 0.309375 1.77375 0.61875 2.6875 0.9375 C8.30877947 2.57510414 14.18552198 2.66774411 20 3 C20 3.33 20 3.66 20 4 C14.06 4 8.12 4 2 4 C2 3.34 2 2.68 2 2 C1.01 1.67 0.02 1.34 -1 1 C-0.67 0.67 -0.34 0.34 0 0 Z " fill="#E3FCFB" transform="translate(10,158)"/>
<path d="M0 0 C2.64 0 5.28 0 8 0 C8.33 2.64 8.66 5.28 9 8 C7.87411986 7.04270084 6.7493285 6.08412105 5.625 5.125 C4.99851562 4.59132813 4.37203125 4.05765625 3.7265625 3.5078125 C2.44163349 2.38567993 1.20628025 1.20628025 0 0 Z " fill="#E9F9F7" transform="translate(36,90)"/>
<path d="M0 0 C0.66 0 1.32 0 2 0 C2 0.66 2 1.32 2 2 C4.64 2 7.28 2 10 2 C10 2.99 10 3.98 10 5 C3.51707705 5.3669579 3.51707705 5.3669579 1.0625 3.625 C0 2 0 2 0 0 Z " fill="#E0F8F6" transform="translate(82,232)"/>
<path d="M0 0 C0.66 0 1.32 0 2 0 C2 0.66 2 1.32 2 2 C3.65 2 5.3 2 7 2 C7.33 3.32 7.66 4.64 8 6 C5.6875 6.25 5.6875 6.25 3 6 C1.02389614 3.95575462 0 2.8823175 0 0 Z " fill="#EEFAF4" transform="translate(316,54)"/>
<path d="M0 0 C0.33 0 0.66 0 1 0 C1.33 1.65 1.66 3.3 2 5 C2.99 5 3.98 5 5 5 C4.67 5.66 4.34 6.32 4 7 C1.03 7 -1.94 7 -5 7 C-1.19140625 1.53125 -1.19140625 1.53125 0 0 Z " fill="#55B5DE" transform="translate(249,118)"/>
<path d="M0 0 C0.99 1.485 0.99 1.485 2 3 C2.66 2.67 3.32 2.34 4 2 C4.33 4.31 4.66 6.62 5 9 C4.01 9.66 3.02 10.32 2 11 C2 9.35 2 7.7 2 6 C1.34 6 0.68 6 0 6 C0 4.02 0 2.04 0 0 Z " fill="#68BDDC" transform="translate(322,194)"/>
<path d="M0 0 C0 0.33 0 0.66 0 1 C-2.31 1 -4.62 1 -7 1 C-7 2.98 -7 4.96 -7 7 C-7.33 6.34 -7.66 5.68 -8 5 C-8.66 5 -9.32 5 -10 5 C-10.66 3.68 -11.32 2.36 -12 1 C-8.0186217 -0.3271261 -4.14954773 -0.06915913 0 0 Z " fill="#C2EBF3" transform="translate(420,193)"/>
<path d="M0 0 C2.4375 0.6875 2.4375 0.6875 5 2 C5.8125 4.625 5.8125 4.625 6 7 C5.34 6.67 4.68 6.34 4 6 C4 5.34 4 4.68 4 4 C2.35 4 0.7 4 -1 4 C-1.33 3.34 -1.66 2.68 -2 2 C-1.34 2 -0.68 2 0 2 C0 1.34 0 0.68 0 0 Z " fill="#EFFCF6" transform="translate(284,30)"/>
<path d="M0 0 C2.64 0 5.28 0 8 0 C8 0.99 8 1.98 8 3 C5.36 3 2.72 3 0 3 C0 2.01 0 1.02 0 0 Z " fill="#E2FCF7" transform="translate(472,199)"/>
<path d="M0 0 C0.33 0 0.66 0 1 0 C1 3.3 1 6.6 1 10 C0.01 10.33 -0.98 10.66 -2 11 C-2.19622241 6.78121808 -1.80230168 3.82989106 0 0 Z " fill="#60B6D4" transform="translate(306,191)"/>
<path d="M0 0 C0.66 0 1.32 0 2 0 C1.67 1.65 1.34 3.3 1 5 C1.66 5.33 2.32 5.66 3 6 C0 8 0 8 -3 8 C-3 6 -3 6 -1 4 C-0.3574765 1.93125966 -0.3574765 1.93125966 0 0 Z " fill="#56B5DA" transform="translate(407,237)"/>
<path d="M0 0 C1.98 0.495 1.98 0.495 4 1 C4 1.66 4 2.32 4 3 C5.32 3.33 6.64 3.66 8 4 C8 4.66 8 5.32 8 6 C5.03 5.01 2.06 4.02 -1 3 C-0.67 2.01 -0.34 1.02 0 0 Z " fill="#E5F8F6" transform="translate(26,114)"/>
<path d="M0 0 C2.875 -0.125 2.875 -0.125 6 0 C6.66 0.66 7.32 1.32 8 2 C5.09399739 3.25664978 3.20395416 4 0 4 C0 2.68 0 1.36 0 0 Z " fill="#F2FAF3" transform="translate(300,18)"/>
<path d="M0 0 C0.99 0.33 1.98 0.66 3 1 C3.6875 3.0625 3.6875 3.0625 4 5 C1.36 5 -1.28 5 -4 5 C-2.68 4.67 -1.36 4.34 0 4 C0 2.68 0 1.36 0 0 Z " fill="#48AFD4" transform="translate(662,194)"/>
<path d="M0 0 C0.33 0.99 0.66 1.98 1 3 C2.32 2.67 3.64 2.34 5 2 C4.34 4.31 3.68 6.62 3 9 C2.67 8.01 2.34 7.02 2 6 C1.34 6 0.68 6 0 6 C0 4.02 0 2.04 0 0 Z " fill="#65BDE2" transform="translate(582,194)"/>
<path d="M0 0 C0.80824219 0.11085937 1.61648438 0.22171875 2.44921875 0.3359375 C3.37154297 0.47902344 3.37154297 0.47902344 4.3125 0.625 C4.3125 0.955 4.3125 1.285 4.3125 1.625 C-0.02023814 2.55344389 -3.35476186 2.55344389 -7.6875 1.625 C-4.33422361 -0.61051759 -3.78006343 -0.54783528 0 0 Z " fill="#60B8DF" transform="translate(402.6875,192.375)"/>
<path d="M0 0 C1.65 0.33 3.3 0.66 5 1 C4.67 2.32 4.34 3.64 4 5 C4 4.01 4 3.02 4 2 C3.34 2 2.68 2 2 2 C1.67 2.99 1.34 3.98 1 5 C0.34 4.67 -0.32 4.34 -1 4 C-0.67 2.68 -0.34 1.36 0 0 Z " fill="#57B7DF" transform="translate(481,239)"/>
<path d="M0 0 C1.32 1.32 2.64 2.64 4 4 C3.67 4.99 3.34 5.98 3 7 C2.01 6.67 1.02 6.34 0 6 C0 4.02 0 2.04 0 0 Z " fill="#50BADF" transform="translate(372,198)"/>
<path d="M0 0 C1.485 0.99 1.485 0.99 3 2 C3 3.32 3 4.64 3 6 C1.02 6.99 1.02 6.99 -1 8 C-0.67 5.36 -0.34 2.72 0 0 Z " fill="#DDF6F6" transform="translate(145,130)"/>
</svg>
