<?xml version="1.0" encoding="UTF-8"?>
<svg version="1.1" xmlns="http://www.w3.org/2000/svg" width="231" height="137">
<path d="M0 0 C76.23 0 152.46 0 231 0 C231 45.21 231 90.42 231 137 C154.77 137 78.54 137 0 137 C0 91.79 0 46.58 0 0 Z " fill="#FDFDFE" transform="translate(0,0)"/>
<path d="M0 0 C1.61692285 0.00084715 3.23384686 0.00036942 4.85076904 -0.00132751 C9.22215885 -0.00218548 13.59329986 0.01540791 17.96463203 0.03639436 C22.53968151 0.05519445 27.11473719 0.05691422 31.68981934 0.06047058 C40.34527011 0.06978127 49.00060671 0.09438182 57.65600729 0.12451905 C67.51330474 0.15809348 77.37060776 0.17455671 87.22794819 0.18960536 C107.49773222 0.22093225 127.76741359 0.27367373 148.03710938 0.34057617 C149.40130943 4.43317635 147.80356088 6.81070276 146.09960938 10.52807617 C145.66358398 11.509375 145.66358398 11.509375 145.21875 12.51049805 C144.50015595 14.12438961 143.76975058 15.73301272 143.03710938 17.34057617 C142.2929606 17.34296453 141.54881182 17.34535288 140.78211308 17.34781361 C122.65308551 17.40701812 104.52419346 17.48260306 86.3953104 17.57629108 C77.62821723 17.62120579 68.86116429 17.66063039 60.09399414 17.68701172 C52.4501588 17.71002688 44.80645122 17.74346409 37.16271728 17.78927773 C33.11755395 17.81316263 29.0725168 17.83192235 25.02728462 17.83819008 C21.21460538 17.84426246 17.40224877 17.86433934 13.58968925 17.89485168 C12.19540528 17.90359758 10.80107907 17.90736168 9.4067688 17.90558434 C0.1575881 17.89752158 -9.4638093 17.97517258 -16.61132812 24.72338867 C-22.26187929 31.48445278 -23.83539491 38.23648785 -23.41210938 46.96557617 C-21.64677441 60.22861451 -10.51578133 67.74930664 -1.01464844 76.04077148 C0.22203376 77.12262849 1.45431769 78.20953875 2.68164062 79.30200195 C3.80514281 80.30091713 4.94008198 81.28716838 6.08789062 82.25805664 C8.80108496 84.66834665 9.98170004 86.12300557 10.88867188 89.68432617 C10.96214844 90.99916992 10.96214844 90.99916992 11.03710938 92.34057617 C7.45838677 94.72639125 4.93916998 94.61060662 0.81176758 94.56762695 C0.07981171 94.56791901 -0.65214417 94.56821106 -1.40628052 94.56851196 C-3.82501084 94.56711891 -6.24343289 94.55155906 -8.66210938 94.53588867 C-10.3393385 94.53215845 -12.0165698 94.52931152 -13.69380188 94.52731323 C-18.10794086 94.51967749 -22.52194819 94.50002952 -26.93603516 94.47790527 C-31.44041157 94.45744557 -35.94480926 94.44831125 -40.44921875 94.43823242 C-49.28716721 94.41678357 -58.12501797 94.38264833 -66.96289062 94.34057617 C-66.44385234 90.84067598 -65.86426293 87.65347884 -64.49511719 84.38769531 C-64.19634171 83.66628357 -63.89756622 82.94487183 -63.58973694 82.20159912 C-63.26428391 81.43406311 -62.93883087 80.6665271 -62.60351562 79.87573242 C-62.09207253 78.6481723 -62.09207253 78.6481723 -61.57029724 77.39581299 C-60.4573923 74.72891187 -59.33542554 72.06593659 -58.21289062 69.40307617 C-57.44132624 67.56172739 -56.67025263 65.72017289 -55.8996582 63.87841797 C-54.34057828 60.15424474 -52.77798699 56.43157051 -51.21337891 52.7097168 C-49.15088852 47.79769697 -47.11380863 42.87553883 -45.08398438 37.94995117 C-44.21361256 35.84557283 -43.34246291 33.74151908 -42.4708252 31.63766479 C-41.92888351 30.326736 -41.3888875 29.01500096 -40.85095215 27.7024231 C-40.10653564 25.88791518 -39.35326364 24.07704795 -38.59960938 22.26635742 C-38.18412842 21.26000244 -37.76864746 20.25364746 -37.34057617 19.21679688 C-35.02314381 14.37864862 -32.23222347 10.21566665 -28.21289062 6.65307617 C-27.59929688 6.09233398 -26.98570313 5.5315918 -26.35351562 4.95385742 C-18.12670477 -0.59789565 -9.5289334 -0.06999909 0 0 Z " fill="#05254C" transform="translate(73.962890625,10.659423828125)"/>
<path d="M0 0 C1.15645523 -0.00043808 1.15645523 -0.00043808 2.33627319 -0.00088501 C4.88485973 0.00050845 7.43315398 0.01607029 9.98168945 0.03173828 C11.74859965 0.03546836 13.51551192 0.03831535 15.28242493 0.04031372 C19.93329579 0.04795061 24.58404177 0.06759959 29.23486328 0.08972168 C33.98053294 0.1101789 38.72622278 0.11931517 43.47192383 0.12939453 C52.78382766 0.15084542 62.0956388 0.18498205 71.4074707 0.22705078 C70.6482167 5.26299165 69.2172286 9.66013918 67.2824707 14.35205078 C66.77707764 15.59656006 66.77707764 15.59656006 66.26147461 16.86621094 C64.98679487 19.990684 63.69832413 23.10922335 62.4074707 26.22705078 C62.12806641 26.90227783 61.84866211 27.57750488 61.56079102 28.27319336 C56.87124472 39.60288372 52.16451876 50.92551776 47.4074707 62.22705078 C47.11424927 62.92399048 46.82102783 63.62093018 46.5189209 64.33898926 C45.68538553 66.3160255 44.84803187 68.29139026 44.0090332 70.26611328 C43.53030762 71.39484863 43.05158203 72.52358398 42.55834961 73.68652344 C41.4074707 76.22705078 41.4074707 76.22705078 40.4074707 77.22705078 C38.03178551 77.31544749 35.68538396 77.34235383 33.30981445 77.32470703 C32.24652672 77.32258461 32.24652672 77.32258461 31.16175842 77.32041931 C28.88945358 77.31480521 26.61724595 77.30225041 24.3449707 77.28955078 C22.80786275 77.28453759 21.27075325 77.27997437 19.73364258 77.27587891 C15.95821428 77.26483121 12.182859 77.24755719 8.4074707 77.22705078 C9.19822998 76.59871338 9.98898926 75.97037598 10.80371094 75.32299805 C18.24169614 69.33564662 22.26676469 62.35064345 23.7902832 52.83642578 C24.19605999 45.09961513 21.05419614 38.91761256 16.1574707 33.10205078 C13.09984439 29.80268905 9.80865728 26.85245463 6.38012695 23.94580078 C3.83262148 21.72619205 1.4956085 19.33612865 -0.85424805 16.91064453 C-2.63098617 15.18980378 -4.50711837 13.73229502 -6.4675293 12.22705078 C-9.36672002 9.82727323 -9.57531709 9.29819457 -10.5300293 5.35205078 C-10.5506543 4.32080078 -10.5712793 3.28955078 -10.5925293 2.22705078 C-6.93208262 -0.213247 -4.2286838 -0.04177171 0 0 Z " fill="#04244B" transform="translate(81.592529296875,48.77294921875)"/>
<path d="M0 0 C0.66163651 0.00424484 1.32327301 0.00848969 2.00495911 0.01286316 C4.11440035 0.02963182 6.22287971 0.06727776 8.33203125 0.10546875 C9.76365806 0.12051807 11.19529987 0.13420605 12.62695312 0.14648438 C16.13312413 0.17952845 19.63873379 0.23129708 23.14453125 0.29296875 C22.62380015 4.74960205 21.85818708 8.53432675 20.0625 12.64453125 C19.63090576 13.64693848 19.19931152 14.6493457 18.75463867 15.68212891 C18.28517822 16.74995605 17.81571777 17.8177832 17.33203125 18.91796875 C16.33037027 21.22974978 15.33043706 23.54228002 14.33203125 25.85546875 C13.80996094 27.06332031 13.28789062 28.27117187 12.75 29.515625 C11.0964573 33.37758374 9.52153613 37.26925928 7.95703125 41.16796875 C7.4295669 42.4744965 6.90198 43.78097477 6.37426758 45.08740234 C5.36536662 47.58620891 4.3702001 50.08914332 3.3815918 52.59619141 C-0.65357876 62.55198288 -4.84295522 70.54438697 -14.85546875 75.29296875 C-20.06701351 77.49373839 -24.67874077 77.53307635 -30.23046875 77.41796875 C-31.06191406 77.40894531 -31.89335937 77.39992188 -32.75 77.390625 C-34.78528212 77.36723095 -36.82041439 77.331366 -38.85546875 77.29296875 C-38.25670163 72.49822592 -36.82949596 68.36518012 -34.93359375 63.95703125 C-34.63706909 63.25246292 -34.34054443 62.54789459 -34.03503418 61.82197571 C-33.06431067 59.51814223 -32.0849737 57.2180807 -31.10546875 54.91796875 C-29.73780991 51.68358559 -28.37448769 48.44738353 -27.01171875 45.2109375 C-26.66542419 44.39003128 -26.31912964 43.56912506 -25.96234131 42.7233429 C-23.6125304 37.13862564 -21.32285154 31.53241244 -19.07421875 25.90625 C-18.7782782 25.16763733 -18.48233765 24.42902466 -18.1774292 23.66802979 C-17.04033156 20.82801397 -15.90392441 17.98785034 -14.78234863 15.1416626 C-14.01639685 13.1985313 -13.24143575 11.25921049 -12.46484375 9.3203125 C-12.03139648 8.22452881 -11.59794922 7.12874512 -11.15136719 5.99975586 C-8.39639178 0.2453451 -6.35486446 -0.08044132 0 0 Z " fill="#05244C" transform="translate(183.85546875,48.70703125)"/>
</svg>
