<?xml version="1.0" encoding="UTF-8"?>
<svg version="1.1" xmlns="http://www.w3.org/2000/svg" width="128" height="128">
<path d="M0 0 C42.24 0 84.48 0 128 0 C128 42.24 128 84.48 128 128 C85.76 128 43.52 128 0 128 C0 85.76 0 43.52 0 0 Z " fill="#3DB4E6" transform="translate(0,0)"/>
<path d="M0 0 C5.28 0 10.56 0 16 0 C16.25394531 1.29292969 16.50789063 2.58585937 16.76953125 3.91796875 C18.69238259 13.6521694 20.67608976 23.35225142 23 33 C23.19916016 31.82630859 23.19916016 31.82630859 23.40234375 30.62890625 C23.57894531 29.61699219 23.75554688 28.60507812 23.9375 27.5625 C24.11152344 26.55316406 24.28554688 25.54382813 24.46484375 24.50390625 C25 22 25 22 26 21 C26.36608966 19.44546691 26.68117574 17.87882745 26.97265625 16.30859375 C27.14990234 15.36435547 27.32714844 14.42011719 27.50976562 13.44726562 C27.69216797 12.45404297 27.87457031 11.46082031 28.0625 10.4375 C28.24876953 9.44041016 28.43503906 8.44332031 28.62695312 7.41601562 C29.08811568 4.94465731 29.5445006 2.47240837 30 0 C35.28 0 40.56 0 46 0 C46 17.16 46 34.32 46 52 C42.7 52 39.4 52 36 52 C35.67 40.78 35.34 29.56 35 18 C33.11308042 26.56990781 33.11308042 26.56990781 31.23095703 35.14086914 C29.9758881 40.81495019 28.70128097 46.4419316 27 52 C24.36 52 21.72 52 19 52 C18.22484556 49.12610725 17.45486613 46.2509739 16.6875 43.375 C16.47416016 42.58609375 16.26082031 41.7971875 16.04101562 40.984375 C14.09994876 33.6836459 12.5894891 26.4176158 11 19 C10.67 29.89 10.34 40.78 10 52 C6.7 52 3.4 52 0 52 C0 34.84 0 17.68 0 0 Z " fill="#F5FBFD" transform="translate(19,34)"/>
<path d="M0 0 C3.96 0 7.92 0 12 0 C12.83986084 1.93467942 13.67168027 3.87285129 14.5 5.8125 C14.9640625 6.89144531 15.428125 7.97039063 15.90625 9.08203125 C17 12 17 12 17 15 C17.66 15 18.32 15 19 15 C19.29003906 14.00419922 19.29003906 14.00419922 19.5859375 12.98828125 C19.84632812 12.10527344 20.10671875 11.22226562 20.375 10.3125 C20.75785156 9.00732422 20.75785156 9.00732422 21.1484375 7.67578125 C21.97617314 5.07486881 22.98630809 2.53422977 24 0 C27.96 0 31.92 0 36 0 C34.91129842 3.71973041 33.5031523 7.11481254 31.765625 10.56640625 C31.35699219 11.38173828 30.94835937 12.19707031 30.52734375 13.03710938 C29.67100725 14.73014163 28.80366386 16.41764845 27.92578125 18.09960938 C25.53624272 22.59500117 25.53624272 22.59500117 25.4453125 27.48828125 C25.95835938 28.31714844 26.47140625 29.14601563 27 30 C27.73302012 31.50740352 28.45293516 33.02120816 29.1640625 34.5390625 C30.40285641 37.10456472 31.64591638 39.66773101 32.8984375 42.2265625 C33.29546875 43.0515625 33.6925 43.8765625 34.1015625 44.7265625 C34.46588379 45.47502441 34.83020508 46.22348633 35.20556641 46.99462891 C36 49 36 49 36 52 C32.37 52 28.74 52 25 52 C22.69 47.05 20.38 42.1 18 37 C15.39473112 39.60526888 14.65865776 42.17939234 13.375 45.625 C12.92898437 46.81351563 12.48296875 48.00203125 12.0234375 49.2265625 C11.68570313 50.14179687 11.34796875 51.05703125 11 52 C7.04 52 3.08 52 -1 52 C0.05739916 48.3487598 1.4202472 45.06682688 3.19921875 41.72265625 C3.60333984 40.96146484 4.00746094 40.20027344 4.42382812 39.41601562 C5.26729008 37.84511662 6.12152261 36.27995396 6.98632812 34.72070312 C9.62102828 29.70162055 10.68283111 26.65929869 9 21 C7.62227448 17.65287238 6.0607646 14.42159991 4.4375 11.1875 C3.5995726 9.49511552 2.76477161 7.80117832 1.93359375 6.10546875 C1.56290771 5.36449951 1.19222168 4.62353027 0.81030273 3.86010742 C0 2 0 2 0 0 Z " fill="#F6FBFD" transform="translate(73,34)"/>
<path d="M0 0 C0.33 0 0.66 0 1 0 C1 12.54 1 25.08 1 38 C0.67 38 0.34 38 0 38 C-0.33 30.08 -0.66 22.16 -1 14 C-1.66 15.98 -2.32 17.96 -3 20 C-4.37344385 15.60155678 -3.24307502 12.07495445 -2.0625 7.75 C-1.86720703 7.00492188 -1.67191406 6.25984375 -1.47070312 5.4921875 C-0.98895802 3.65920614 -0.49560775 1.82928182 0 0 Z " fill="#51BCE8" transform="translate(54,48)"/>
</svg>
